<mxfile host="Electron" modified="2024-12-07T23:36:54.221Z" agent="Mozilla/5.0 (Windows NT 10.0; Win64; x64) AppleWebKit/537.36 (KHTML, like Gecko) draw.io/24.4.0 Chrome/120.0.6099.109 Electron/28.1.0 Safari/537.36" etag="aOsOdL-beZ3c06BYXKdG" version="24.4.0" type="device">
  <diagram name="Page-1" id="b-V1Spg33pdkOXLn0fel">
    <mxGraphModel dx="1372" dy="884" grid="1" gridSize="10" guides="1" tooltips="1" connect="1" arrows="1" fold="1" page="1" pageScale="1" pageWidth="850" pageHeight="1100" math="0" shadow="0">
      <root>
        <mxCell id="0" />
        <mxCell id="1" parent="0" />
        <mxCell id="Laf__3OjtKrQcWO3HFms-33" value="Window Title" style="strokeWidth=1;shadow=0;dashed=0;align=center;html=1;shape=mxgraph.mockup.containers.window;align=left;verticalAlign=top;spacingLeft=8;strokeColor2=#008cff;strokeColor3=#c4c4c4;fontColor=#666666;mainText=;fontSize=17;labelBackgroundColor=none;whiteSpace=wrap;" vertex="1" parent="1">
          <mxGeometry x="40" y="40" width="400" height="280" as="geometry" />
        </mxCell>
        <mxCell id="Laf__3OjtKrQcWO3HFms-67" value="" style="group" vertex="1" connectable="0" parent="1">
          <mxGeometry x="70" y="90" width="340" height="200" as="geometry" />
        </mxCell>
        <mxCell id="Laf__3OjtKrQcWO3HFms-44" value="" style="verticalLabelPosition=bottom;shadow=0;dashed=0;align=center;html=1;verticalAlign=top;strokeWidth=1;shape=mxgraph.mockup.graphics.simpleIcon;strokeColor=#999999;fillColor=#ffffff;" vertex="1" parent="Laf__3OjtKrQcWO3HFms-67">
          <mxGeometry width="50" height="50" as="geometry" />
        </mxCell>
        <mxCell id="Laf__3OjtKrQcWO3HFms-45" value="" style="verticalLabelPosition=bottom;shadow=0;dashed=0;align=center;html=1;verticalAlign=top;strokeWidth=1;shape=mxgraph.mockup.graphics.simpleIcon;strokeColor=#999999;fillColor=#ffffff;" vertex="1" parent="Laf__3OjtKrQcWO3HFms-67">
          <mxGeometry x="75" width="50" height="50" as="geometry" />
        </mxCell>
        <mxCell id="Laf__3OjtKrQcWO3HFms-46" value="" style="verticalLabelPosition=bottom;shadow=0;dashed=0;align=center;html=1;verticalAlign=top;strokeWidth=1;shape=mxgraph.mockup.graphics.simpleIcon;strokeColor=#999999;fillColor=#ffffff;" vertex="1" parent="Laf__3OjtKrQcWO3HFms-67">
          <mxGeometry x="150" width="50" height="50" as="geometry" />
        </mxCell>
        <mxCell id="Laf__3OjtKrQcWO3HFms-47" value="" style="verticalLabelPosition=bottom;shadow=0;dashed=0;align=center;html=1;verticalAlign=top;strokeWidth=1;shape=mxgraph.mockup.graphics.simpleIcon;strokeColor=#999999;fillColor=#ffffff;" vertex="1" parent="Laf__3OjtKrQcWO3HFms-67">
          <mxGeometry y="75" width="50" height="50" as="geometry" />
        </mxCell>
        <mxCell id="Laf__3OjtKrQcWO3HFms-48" value="" style="verticalLabelPosition=bottom;shadow=0;dashed=0;align=center;html=1;verticalAlign=top;strokeWidth=1;shape=mxgraph.mockup.graphics.simpleIcon;strokeColor=#999999;fillColor=#ffffff;" vertex="1" parent="Laf__3OjtKrQcWO3HFms-67">
          <mxGeometry x="75" y="75" width="50" height="50" as="geometry" />
        </mxCell>
        <mxCell id="Laf__3OjtKrQcWO3HFms-49" value="" style="verticalLabelPosition=bottom;shadow=0;dashed=0;align=center;html=1;verticalAlign=top;strokeWidth=1;shape=mxgraph.mockup.graphics.simpleIcon;strokeColor=#999999;fillColor=#ffffff;" vertex="1" parent="Laf__3OjtKrQcWO3HFms-67">
          <mxGeometry x="150" y="75" width="50" height="50" as="geometry" />
        </mxCell>
        <mxCell id="Laf__3OjtKrQcWO3HFms-50" value="" style="verticalLabelPosition=bottom;shadow=0;dashed=0;align=center;html=1;verticalAlign=top;strokeWidth=1;shape=mxgraph.mockup.graphics.simpleIcon;strokeColor=#2D7600;fillColor=#60a917;fontColor=#ffffff;" vertex="1" parent="Laf__3OjtKrQcWO3HFms-67">
          <mxGeometry y="150" width="50" height="50" as="geometry" />
        </mxCell>
        <mxCell id="Laf__3OjtKrQcWO3HFms-51" value="" style="verticalLabelPosition=bottom;shadow=0;dashed=0;align=center;html=1;verticalAlign=top;strokeWidth=1;shape=mxgraph.mockup.graphics.simpleIcon;strokeColor=#999999;fillColor=#ffffff;" vertex="1" parent="Laf__3OjtKrQcWO3HFms-67">
          <mxGeometry x="75" y="150" width="50" height="50" as="geometry" />
        </mxCell>
        <mxCell id="Laf__3OjtKrQcWO3HFms-52" value="" style="verticalLabelPosition=bottom;shadow=0;dashed=0;align=center;html=1;verticalAlign=top;strokeWidth=1;shape=mxgraph.mockup.graphics.simpleIcon;strokeColor=#999999;fillColor=#ffffff;" vertex="1" parent="Laf__3OjtKrQcWO3HFms-67">
          <mxGeometry x="150" y="150" width="50" height="50" as="geometry" />
        </mxCell>
        <mxCell id="Laf__3OjtKrQcWO3HFms-53" value="" style="verticalLabelPosition=bottom;shadow=0;dashed=0;align=center;html=1;verticalAlign=top;strokeWidth=1;shape=mxgraph.mockup.graphics.simpleIcon;strokeColor=#999999;fillColor=#ffffff;" vertex="1" parent="Laf__3OjtKrQcWO3HFms-67">
          <mxGeometry x="220" width="50" height="50" as="geometry" />
        </mxCell>
        <mxCell id="Laf__3OjtKrQcWO3HFms-54" value="" style="verticalLabelPosition=bottom;shadow=0;dashed=0;align=center;html=1;verticalAlign=top;strokeWidth=1;shape=mxgraph.mockup.graphics.simpleIcon;strokeColor=#999999;fillColor=#ffffff;" vertex="1" parent="Laf__3OjtKrQcWO3HFms-67">
          <mxGeometry x="220" y="75" width="50" height="50" as="geometry" />
        </mxCell>
        <mxCell id="Laf__3OjtKrQcWO3HFms-55" value="" style="verticalLabelPosition=bottom;shadow=0;dashed=0;align=center;html=1;verticalAlign=top;strokeWidth=1;shape=mxgraph.mockup.graphics.simpleIcon;strokeColor=#999999;fillColor=#ffffff;" vertex="1" parent="Laf__3OjtKrQcWO3HFms-67">
          <mxGeometry x="220" y="150" width="50" height="50" as="geometry" />
        </mxCell>
        <mxCell id="Laf__3OjtKrQcWO3HFms-56" value="" style="verticalLabelPosition=bottom;shadow=0;dashed=0;align=center;html=1;verticalAlign=top;strokeWidth=1;shape=mxgraph.mockup.graphics.simpleIcon;strokeColor=#999999;fillColor=#ffffff;" vertex="1" parent="Laf__3OjtKrQcWO3HFms-67">
          <mxGeometry x="290" width="50" height="50" as="geometry" />
        </mxCell>
        <mxCell id="Laf__3OjtKrQcWO3HFms-57" value="" style="verticalLabelPosition=bottom;shadow=0;dashed=0;align=center;html=1;verticalAlign=top;strokeWidth=1;shape=mxgraph.mockup.graphics.simpleIcon;strokeColor=#999999;fillColor=#ffffff;" vertex="1" parent="Laf__3OjtKrQcWO3HFms-67">
          <mxGeometry x="290" y="75" width="50" height="50" as="geometry" />
        </mxCell>
        <mxCell id="Laf__3OjtKrQcWO3HFms-58" value="" style="verticalLabelPosition=bottom;shadow=0;dashed=0;align=center;html=1;verticalAlign=top;strokeWidth=1;shape=mxgraph.mockup.graphics.simpleIcon;strokeColor=#999999;fillColor=#ffffff;" vertex="1" parent="Laf__3OjtKrQcWO3HFms-67">
          <mxGeometry x="290" y="150" width="50" height="50" as="geometry" />
        </mxCell>
        <mxCell id="Laf__3OjtKrQcWO3HFms-85" value="" style="group" vertex="1" connectable="0" parent="1">
          <mxGeometry x="40" y="400" width="400" height="280" as="geometry" />
        </mxCell>
        <mxCell id="Laf__3OjtKrQcWO3HFms-68" value="Window Title" style="strokeWidth=1;shadow=0;dashed=0;align=center;html=1;shape=mxgraph.mockup.containers.window;align=left;verticalAlign=top;spacingLeft=8;strokeColor2=#008cff;strokeColor3=#c4c4c4;fontColor=#666666;mainText=;fontSize=17;labelBackgroundColor=none;whiteSpace=wrap;" vertex="1" parent="Laf__3OjtKrQcWO3HFms-85">
          <mxGeometry width="400" height="280" as="geometry" />
        </mxCell>
        <mxCell id="Laf__3OjtKrQcWO3HFms-88" value="" style="group" vertex="1" connectable="0" parent="Laf__3OjtKrQcWO3HFms-85">
          <mxGeometry y="50" width="280" height="200" as="geometry" />
        </mxCell>
        <mxCell id="Laf__3OjtKrQcWO3HFms-69" value="" style="verticalLabelPosition=bottom;shadow=0;dashed=0;align=center;html=1;verticalAlign=top;strokeWidth=1;shape=mxgraph.mockup.graphics.simpleIcon;strokeColor=#2D7600;fillColor=#60a917;fontColor=#ffffff;" vertex="1" parent="Laf__3OjtKrQcWO3HFms-88">
          <mxGeometry x="20" width="80" height="80" as="geometry" />
        </mxCell>
        <mxCell id="Laf__3OjtKrQcWO3HFms-19" value="&lt;ol style=&quot;line-height: 140%;&quot;&gt;&lt;li&gt;trackName/&lt;font style=&quot;font-size: 12px;&quot; color=&quot;#ff99cc&quot;&gt;artistName&lt;/font&gt;&amp;nbsp;| (plays) | length&lt;/li&gt;&lt;li&gt;trackName/&lt;font style=&quot;font-size: 12px;&quot; color=&quot;#ff99cc&quot;&gt;artistName&lt;/font&gt;&amp;nbsp;| (plays) | length&lt;/li&gt;&lt;li&gt;trackName/&lt;font style=&quot;font-size: 12px;&quot; color=&quot;#ff99cc&quot;&gt;artistName&lt;/font&gt;&amp;nbsp;| (plays) | length&lt;/li&gt;&lt;li&gt;...&lt;/li&gt;&lt;/ol&gt;" style="text;strokeColor=none;fillColor=none;html=1;whiteSpace=wrap;verticalAlign=middle;overflow=hidden;spacing=2;" vertex="1" parent="Laf__3OjtKrQcWO3HFms-88">
          <mxGeometry y="110" width="280" height="90" as="geometry" />
        </mxCell>
        <mxCell id="Laf__3OjtKrQcWO3HFms-77" value="" style="strokeWidth=1;shadow=0;dashed=0;align=center;html=1;shape=mxgraph.mockup.text.rrect;rSize=0;strokeColor=#666666;" vertex="1" parent="Laf__3OjtKrQcWO3HFms-88">
          <mxGeometry x="20" y="90" width="190" height="20" as="geometry" />
        </mxCell>
        <mxCell id="Laf__3OjtKrQcWO3HFms-78" value="&lt;font style=&quot;font-size: 12px;&quot;&gt;(Shuffle)&lt;/font&gt;" style="strokeColor=inherit;fillColor=inherit;gradientColor=inherit;strokeWidth=1;shadow=0;dashed=0;align=center;html=1;shape=mxgraph.mockup.text.rrect;rSize=0;fontSize=17;fontColor=#0000ff;whiteSpace=wrap;" vertex="1" parent="Laf__3OjtKrQcWO3HFms-77">
          <mxGeometry x="47.5" width="47.5" height="20" as="geometry" />
        </mxCell>
        <mxCell id="Laf__3OjtKrQcWO3HFms-79" value="&lt;font style=&quot;font-size: 12px;&quot;&gt;...&lt;/font&gt;" style="strokeColor=inherit;fillColor=inherit;gradientColor=inherit;strokeWidth=1;shadow=0;dashed=0;align=center;html=1;shape=mxgraph.mockup.text.rrect;rSize=0;fontSize=17;fontColor=#0000ff;whiteSpace=wrap;" vertex="1" parent="Laf__3OjtKrQcWO3HFms-77">
          <mxGeometry x="95" width="47.5" height="20" as="geometry" />
        </mxCell>
        <mxCell id="Laf__3OjtKrQcWO3HFms-80" value="&lt;font style=&quot;font-size: 12px;&quot;&gt;...&lt;/font&gt;" style="strokeColor=inherit;fillColor=inherit;gradientColor=inherit;strokeWidth=1;shadow=0;dashed=0;align=center;html=1;shape=mxgraph.mockup.text.rrect;rSize=0;fontSize=17;fontColor=#0000ff;whiteSpace=wrap;" vertex="1" parent="Laf__3OjtKrQcWO3HFms-77">
          <mxGeometry x="142.5" width="47.5" height="20" as="geometry" />
        </mxCell>
        <mxCell id="Laf__3OjtKrQcWO3HFms-81" value="&lt;font style=&quot;font-size: 12px;&quot;&gt;Play&lt;/font&gt;" style="strokeWidth=1;shadow=0;dashed=0;align=center;html=1;shape=mxgraph.mockup.text.rrect;rSize=0;fontSize=17;fontColor=#ffffff;fillColor=#008cff;strokeColor=#008cff;whiteSpace=wrap;" vertex="1" parent="Laf__3OjtKrQcWO3HFms-77">
          <mxGeometry width="47.5" height="20" as="geometry" />
        </mxCell>
        <mxCell id="Laf__3OjtKrQcWO3HFms-82" value="&lt;font style=&quot;font-size: 16px;&quot;&gt;Title&lt;/font&gt;" style="text;html=1;align=center;verticalAlign=middle;resizable=0;points=[];autosize=1;strokeColor=none;fillColor=none;" vertex="1" parent="Laf__3OjtKrQcWO3HFms-88">
          <mxGeometry x="100" width="50" height="30" as="geometry" />
        </mxCell>
        <mxCell id="Laf__3OjtKrQcWO3HFms-83" value="meta info..." style="text;html=1;align=center;verticalAlign=middle;resizable=0;points=[];autosize=1;strokeColor=none;fillColor=none;" vertex="1" parent="Laf__3OjtKrQcWO3HFms-88">
          <mxGeometry x="100" y="25" width="80" height="30" as="geometry" />
        </mxCell>
        <mxCell id="Laf__3OjtKrQcWO3HFms-90" value="" style="endArrow=classic;html=1;rounded=0;exitX=0.5;exitY=0.6;exitDx=0;exitDy=0;exitPerimeter=0;" edge="1" parent="1" source="Laf__3OjtKrQcWO3HFms-50" target="Laf__3OjtKrQcWO3HFms-68">
          <mxGeometry width="50" height="50" relative="1" as="geometry">
            <mxPoint x="400" y="370" as="sourcePoint" />
            <mxPoint x="450" y="320" as="targetPoint" />
          </mxGeometry>
        </mxCell>
        <mxCell id="Laf__3OjtKrQcWO3HFms-91" value="/releases/&lt;font color=&quot;#66ff66&quot;&gt;releaseId&lt;/font&gt;" style="edgeLabel;html=1;align=center;verticalAlign=middle;resizable=0;points=[];" vertex="1" connectable="0" parent="Laf__3OjtKrQcWO3HFms-90">
          <mxGeometry x="0.4008" relative="1" as="geometry">
            <mxPoint as="offset" />
          </mxGeometry>
        </mxCell>
      </root>
    </mxGraphModel>
  </diagram>
</mxfile>
